# xmcd CD database file
#
# Track frame offsets:
#	150
#	21846
#	40374
#	70174
#	98520
#	111564
#	131541
#	152355
#	173627
#	193319
#	218600
#	233945
#
# Disc length: 3421 seconds
#
# Revision: 0
# Processed by: cddbd v1.5.2PL0 Copyright (c) Steve Scherf et al.
# Submitted via: CDex 1.50beta9
#
DISCID=9f0d5b0c
DTITLE=Lahr, Barbara - Undo Undo
DYEAR=2007
DGENRE=Jazz
TTITLE0=A Queen Called Malingam
TTITLE1=Pretty Bird
TTITLE2=Last Goodbye
TTITLE3=Guardian Angel
TTITLE4=Never Can Go Home
TTITLE5=What Is Life
TTITLE6=Old Age
TTITLE7=Love Is...
TTITLE8=Breeze (Featuring Thomas Siffling and The PSO)
TTITLE9=Sorrow
TTITLE10=Clown
TTITLE11=Sleepless
EXTD=YEAR: 2007
EXTT0=
EXTT1=
EXTT2=
EXTT3=
EXTT4=
EXTT5=
EXTT6=
EXTT7=
EXTT8=
EXTT9=
EXTT10=
EXTT11=
PLAYORDER=
